<svg width="20" height="20" viewBox="0 0 20 20" fill="none" xmlns="http://www.w3.org/2000/svg">
<path d="M10 14.8837C11.0485 14.8837 12.0542 14.4671 12.7956 13.7257C13.5369 12.9844 13.9535 11.9788 13.9535 10.9302C13.9535 9.88176 13.5369 8.87607 12.7956 8.13465C12.0541 7.39318 11.0485 6.97675 10 6.97675C8.95152 6.97675 7.94583 7.39317 7.20441 8.13465C6.46313 8.87611 6.04651 9.88176 6.04651 10.9302C6.04651 11.9787 6.46311 12.9844 7.20441 13.7257C7.94588 14.4671 8.95152 14.8837 10 14.8837ZM10 9.08527C10.4894 9.08527 10.9586 9.2796 11.3046 9.62558C11.6506 9.97159 11.8449 10.4408 11.8449 10.9302C11.8449 11.4194 11.6506 11.8888 11.3046 12.2348C10.9586 12.5808 10.4894 12.7751 10 12.7751C9.51056 12.7751 9.04142 12.5808 8.69539 12.2348C8.34939 11.8888 8.15508 11.4194 8.15508 10.9302C8.15508 10.4408 8.34941 9.97161 8.69539 9.62558C9.0414 9.27958 9.51056 9.08527 10 9.08527Z" fill="#413E54"/>
<path d="M3.74992 20H16.25C17.2446 20 18.1983 19.605 18.9015 18.9016C19.6049 18.1983 20 17.2447 20 16.25V8.25952C20.0046 6.75936 19.2647 5.35445 18.025 4.50958L12.55 0.787554C11.7986 0.274642 10.9098 0 10 0C9.09018 0 8.20144 0.274659 7.45005 0.787554L1.97497 4.51896C0.735291 5.36388 -0.00455481 6.76873 2.1103e-05 8.26889V16.2499C2.1103e-05 17.2445 0.395005 18.1982 1.09846 18.9015C1.8017 19.6049 2.75533 19.9999 3.75003 19.9999L3.74992 20ZM2.50003 8.25952C2.49981 7.58921 2.83093 6.96254 3.38441 6.58452L8.85926 2.85334C9.19517 2.62315 9.5928 2.50021 9.99994 2.50021C10.4071 2.50021 10.8047 2.62315 11.1406 2.85334L16.6155 6.58452C17.1689 6.9625 17.5001 7.58921 17.4999 8.25952V16.25C17.4999 16.5816 17.3682 16.8994 17.1339 17.1339C16.8993 17.3683 16.5815 17.4999 16.2499 17.4999H3.74989C3.41834 17.4999 3.1005 17.3683 2.86596 17.1339C2.63163 16.8994 2.49996 16.5816 2.49996 16.25L2.50003 8.25952Z" fill="#413E54"/>
</svg>
