<svg width="20" height="20" viewBox="0 0 20 20" fill="none" xmlns="http://www.w3.org/2000/svg">
<path d="M3.74995 20H16.25C17.2446 20 18.1983 19.5787 18.9016 18.8283C19.605 18.0782 20 17.0608 20 16V6.66669C20 5.60574 19.605 4.58848 18.9016 3.83837C18.1983 3.08807 17.2447 2.6667 16.25 2.6667H12L9.21872 0.293434C8.99703 0.103702 8.7215 0.000232142 8.43747 0H3.12501C2.29621 0 1.50123 0.351095 0.915293 0.976308C0.329131 1.60131 0 2.44928 0 3.33333V16C0 17.0607 0.394985 18.0782 1.09844 18.8283C1.80168 19.5786 2.75531 20 3.75001 20L3.74995 20ZM2.50006 3.33337C2.50006 2.96507 2.77973 2.66676 3.12501 2.66676H7.99997L9.56247 3.99997L7.99997 5.33319L3.12501 5.33342C2.77972 5.33342 2.50006 5.03487 2.50006 4.66657V3.33337ZM2.50006 7.93342C2.70562 7.97783 2.9151 8.00015 3.12501 7.99992H8.43747C8.7215 7.99969 8.99701 7.89622 9.21872 7.70672L12 5.33345H16.25C16.5815 5.33345 16.8994 5.47389 17.1339 5.72384C17.3683 5.97402 17.4999 6.31303 17.4999 6.66669V16C17.4999 16.3537 17.3683 16.6927 17.1339 16.9429C16.8994 17.1928 16.5816 17.3333 16.25 17.3333H3.74995C3.4184 17.3333 3.10057 17.1928 2.86602 16.9429C2.63169 16.6927 2.50003 16.3537 2.50003 16L2.50006 7.93342Z" fill="#413E54"/>
</svg>
