<svg width="36" height="37" viewBox="0 0 36 37" fill="none" xmlns="http://www.w3.org/2000/svg">
<g clip-path="url(#clip0_44_932)">
<path d="M15.75 26C15.5526 26.0011 15.3569 25.9633 15.1742 25.8887C14.9914 25.814 14.8252 25.704 14.685 25.565C14.5444 25.4256 14.4328 25.2597 14.3567 25.0769C14.2805 24.8941 14.2413 24.698 14.2413 24.5C14.2413 24.302 14.2805 24.1059 14.3567 23.9231C14.4328 23.7403 14.5444 23.5744 14.685 23.435L19.65 18.5L14.88 13.535C14.6007 13.254 14.4438 12.8738 14.4438 12.4775C14.4438 12.0812 14.6007 11.701 14.88 11.42C15.0195 11.2794 15.1854 11.1678 15.3682 11.0917C15.551 11.0155 15.747 10.9763 15.945 10.9763C16.143 10.9763 16.3391 11.0155 16.5219 11.0917C16.7047 11.1678 16.8706 11.2794 17.01 11.42L22.8 17.42C23.0749 17.7004 23.2288 18.0774 23.2288 18.47C23.2288 18.8626 23.0749 19.2396 22.8 19.52L16.8 25.52C16.6654 25.6654 16.5033 25.7827 16.3231 25.8651C16.1428 25.9475 15.9481 25.9933 15.75 26V26Z" fill="#413E54"/>
</g>
<defs>
<clipPath id="clip0_44_932">
<rect width="36" height="36" fill="white" transform="translate(0 0.5)"/>
</clipPath>
</defs>
</svg>
