<svg width="20" height="20" viewBox="0 0 20 20" fill="none" xmlns="http://www.w3.org/2000/svg">
<g clip-path="url(#clip0_793_6773)">
<path d="M10 20C15.5228 20 20 15.5228 20 10C20 4.47715 15.5228 0 10 0C4.47715 0 0 4.47715 0 10C0 15.5228 4.47715 20 10 20Z" fill="#A3A3A3"/>
<path d="M14.375 9.375H10.625V5.625C10.625 5.45924 10.5592 5.30027 10.4419 5.18306C10.3247 5.06585 10.1657 5 10 5C9.83425 5 9.67525 5.06585 9.55808 5.18306C9.44083 5.30027 9.375 5.45924 9.375 5.625V9.375H5.625C5.45924 9.375 5.30027 9.44083 5.18306 9.55808C5.06585 9.67525 5 9.83425 5 10C5 10.1657 5.06585 10.3247 5.18306 10.4419C5.30027 10.5592 5.45924 10.625 5.625 10.625H9.375V14.375C9.375 14.5407 9.44083 14.6997 9.55808 14.8169C9.67525 14.9342 9.83425 15 10 15C10.1657 15 10.3247 14.9342 10.4419 14.8169C10.5592 14.6997 10.625 14.5407 10.625 14.375V10.625H14.375C14.5407 10.625 14.6997 10.5592 14.8169 10.4419C14.9342 10.3247 15 10.1657 15 10C15 9.83425 14.9342 9.67525 14.8169 9.55808C14.6997 9.44083 14.5407 9.375 14.375 9.375Z" fill="white"/>
</g>
<defs>
<clipPath id="clip0_793_6773">
<rect width="20" height="20" fill="white"/>
</clipPath>
</defs>
</svg>
