<svg width="20" height="21" viewBox="0 0 20 21" fill="none" xmlns="http://www.w3.org/2000/svg">
<path d="M7.72727 3.83333H12.2727C12.2727 3.2808 12.0333 2.75089 11.6071 2.36019C11.1808 1.96949 10.6028 1.75 10 1.75C9.39724 1.75 8.81916 1.96949 8.39294 2.36019C7.96672 2.75089 7.72727 3.2808 7.72727 3.83333ZM6.36364 3.83333C6.36364 2.94928 6.74675 2.10143 7.4287 1.47631C8.11065 0.851189 9.03558 0.5 10 0.5C10.9644 0.5 11.8893 0.851189 12.5713 1.47631C13.2532 2.10143 13.6364 2.94928 13.6364 3.83333H19.3182C19.499 3.83333 19.6724 3.89918 19.8003 4.01639C19.9282 4.1336 20 4.29257 20 4.45833C20 4.62409 19.9282 4.78306 19.8003 4.90027C19.6724 5.01748 19.499 5.08333 19.3182 5.08333H18.1273L17.0209 17.2525C16.9404 18.1378 16.4999 18.963 15.7868 19.5645C15.0737 20.166 14.14 20.4999 13.1709 20.5H6.82909C5.85999 20.4999 4.92631 20.166 4.21319 19.5645C3.50006 18.963 3.05958 18.1378 2.97909 17.2525L1.87273 5.08333H0.681818C0.500989 5.08333 0.327566 5.01748 0.1997 4.90027C0.0718341 4.78306 0 4.62409 0 4.45833C0 4.29257 0.0718341 4.1336 0.1997 4.01639C0.327566 3.89918 0.500989 3.83333 0.681818 3.83333H6.36364ZM4.33818 17.1483C4.39017 17.7212 4.67511 18.2552 5.1365 18.6445C5.59788 19.0338 6.20201 19.2499 6.82909 19.25H13.1709C13.798 19.2499 14.4021 19.0338 14.8635 18.6445C15.3249 18.2552 15.6098 17.7212 15.6618 17.1483L16.76 5.08333H3.24091L4.33818 17.1483ZM7.95454 8C8.13537 8 8.3088 8.06585 8.43666 8.18306C8.56453 8.30027 8.63636 8.45924 8.63636 8.625V15.7083C8.63636 15.8741 8.56453 16.0331 8.43666 16.1503C8.3088 16.2675 8.13537 16.3333 7.95454 16.3333C7.77372 16.3333 7.60029 16.2675 7.47243 16.1503C7.34456 16.0331 7.27273 15.8741 7.27273 15.7083V8.625C7.27273 8.45924 7.34456 8.30027 7.47243 8.18306C7.60029 8.06585 7.77372 8 7.95454 8ZM12.7273 8.625C12.7273 8.45924 12.6554 8.30027 12.5276 8.18306C12.3997 8.06585 12.2263 8 12.0455 8C11.8646 8 11.6912 8.06585 11.5633 8.18306C11.4355 8.30027 11.3636 8.45924 11.3636 8.625V15.7083C11.3636 15.8741 11.4355 16.0331 11.5633 16.1503C11.6912 16.2675 11.8646 16.3333 12.0455 16.3333C12.2263 16.3333 12.3997 16.2675 12.5276 16.1503C12.6554 16.0331 12.7273 15.8741 12.7273 15.7083V8.625Z" fill="#413E54"/>
</svg>
