<svg width="20" height="20" viewBox="0 0 20 20" fill="none" xmlns="http://www.w3.org/2000/svg">
<path d="M7.72727 3.33333H12.2727C12.2727 2.7808 12.0333 2.25089 11.6071 1.86019C11.1808 1.46949 10.6028 1.25 10 1.25C9.39724 1.25 8.81916 1.46949 8.39294 1.86019C7.96672 2.25089 7.72727 2.7808 7.72727 3.33333ZM6.36364 3.33333C6.36364 2.44928 6.74675 1.60143 7.4287 0.976311C8.11065 0.351189 9.03558 0 10 0C10.9644 0 11.8893 0.351189 12.5713 0.976311C13.2532 1.60143 13.6364 2.44928 13.6364 3.33333H19.3182C19.499 3.33333 19.6724 3.39918 19.8003 3.51639C19.9282 3.6336 20 3.79257 20 3.95833C20 4.12409 19.9282 4.28306 19.8003 4.40027C19.6724 4.51748 19.499 4.58333 19.3182 4.58333H18.1273L17.0209 16.7525C16.9404 17.6378 16.4999 18.463 15.7868 19.0645C15.0737 19.666 14.14 19.9999 13.1709 20H6.82909C5.85999 19.9999 4.92631 19.666 4.21319 19.0645C3.50006 18.463 3.05958 17.6378 2.97909 16.7525L1.87273 4.58333H0.681818C0.500989 4.58333 0.327566 4.51748 0.1997 4.40027C0.0718341 4.28306 0 4.12409 0 3.95833C0 3.79257 0.0718341 3.6336 0.1997 3.51639C0.327566 3.39918 0.500989 3.33333 0.681818 3.33333H6.36364ZM4.33818 16.6483C4.39017 17.2212 4.67511 17.7552 5.1365 18.1445C5.59788 18.5338 6.20201 18.7499 6.82909 18.75H13.1709C13.798 18.7499 14.4021 18.5338 14.8635 18.1445C15.3249 17.7552 15.6098 17.2212 15.6618 16.6483L16.76 4.58333H3.24091L4.33818 16.6483ZM7.95454 7.5C8.13537 7.5 8.3088 7.56585 8.43666 7.68306C8.56453 7.80027 8.63636 7.95924 8.63636 8.125V15.2083C8.63636 15.3741 8.56453 15.5331 8.43666 15.6503C8.3088 15.7675 8.13537 15.8333 7.95454 15.8333C7.77372 15.8333 7.60029 15.7675 7.47243 15.6503C7.34456 15.5331 7.27273 15.3741 7.27273 15.2083V8.125C7.27273 7.95924 7.34456 7.80027 7.47243 7.68306C7.60029 7.56585 7.77372 7.5 7.95454 7.5ZM12.7273 8.125C12.7273 7.95924 12.6554 7.80027 12.5276 7.68306C12.3997 7.56585 12.2263 7.5 12.0455 7.5C11.8646 7.5 11.6912 7.56585 11.5633 7.68306C11.4355 7.80027 11.3636 7.95924 11.3636 8.125V15.2083C11.3636 15.3741 11.4355 15.5331 11.5633 15.6503C11.6912 15.7675 11.8646 15.8333 12.0455 15.8333C12.2263 15.8333 12.3997 15.7675 12.5276 15.6503C12.6554 15.5331 12.7273 15.3741 12.7273 15.2083V8.125Z" fill="#413E54"/>
</svg>
