<svg width="24" height="24" viewBox="0 0 24 24" fill="none" xmlns="http://www.w3.org/2000/svg">
<path d="M9.27273 4H14.7273C14.7273 3.33696 14.4399 2.70107 13.9285 2.23223C13.417 1.76339 12.7233 1.5 12 1.5C11.2767 1.5 10.583 1.76339 10.0715 2.23223C9.56006 2.70107 9.27273 3.33696 9.27273 4ZM7.63636 4C7.63636 2.93913 8.0961 1.92172 8.91444 1.17157C9.73278 0.421427 10.8427 0 12 0C13.1573 0 14.2672 0.421427 15.0856 1.17157C15.9039 1.92172 16.3636 2.93913 16.3636 4H23.1818C23.3988 4 23.6069 4.07902 23.7604 4.21967C23.9138 4.36032 24 4.55109 24 4.75C24 4.94891 23.9138 5.13968 23.7604 5.28033C23.6069 5.42098 23.3988 5.5 23.1818 5.5H21.7527L20.4251 20.103C20.3285 21.1653 19.7999 22.1556 18.9442 22.8774C18.0884 23.5992 16.968 23.9999 15.8051 24H8.19491C7.03199 23.9999 5.91157 23.5992 5.05582 22.8774C4.20008 22.1556 3.6715 21.1653 3.57491 20.103L2.24727 5.5H0.818182C0.601187 5.5 0.393079 5.42098 0.23964 5.28033C0.086201 5.13968 0 4.94891 0 4.75C0 4.55109 0.086201 4.36032 0.23964 4.21967C0.393079 4.07902 0.601187 4 0.818182 4H7.63636ZM5.20582 19.978C5.26821 20.6654 5.61013 21.3062 6.1638 21.7734C6.71746 22.2405 7.44242 22.4999 8.19491 22.5H15.8051C16.5576 22.4999 17.2825 22.2405 17.8362 21.7734C18.3899 21.3062 18.7318 20.6654 18.7942 19.978L20.112 5.5H3.88909L5.20582 19.978ZM9.54545 9C9.76245 9 9.97056 9.07902 10.124 9.21967C10.2774 9.36032 10.3636 9.55109 10.3636 9.75V18.25C10.3636 18.4489 10.2774 18.6397 10.124 18.7803C9.97056 18.921 9.76245 19 9.54545 19C9.32846 19 9.12035 18.921 8.96691 18.7803C8.81347 18.6397 8.72727 18.4489 8.72727 18.25V9.75C8.72727 9.55109 8.81347 9.36032 8.96691 9.21967C9.12035 9.07902 9.32846 9 9.54545 9ZM15.2727 9.75C15.2727 9.55109 15.1865 9.36032 15.0331 9.21967C14.8796 9.07902 14.6715 9 14.4545 9C14.2375 9 14.0294 9.07902 13.876 9.21967C13.7226 9.36032 13.6364 9.55109 13.6364 9.75V18.25C13.6364 18.4489 13.7226 18.6397 13.876 18.7803C14.0294 18.921 14.2375 19 14.4545 19C14.6715 19 14.8796 18.921 15.0331 18.7803C15.1865 18.6397 15.2727 18.4489 15.2727 18.25V9.75Z" fill="#413E54"/>
</svg>
