<svg width="12" height="12" viewBox="0 0 12 12" fill="none" xmlns="http://www.w3.org/2000/svg">
<path d="M12 1.04974C12 0.784649 11.8947 0.530417 11.7072 0.342972C11.5198 0.155526 11.2656 0.0502202 11.0005 0.0502202L3.00435 0.000244141C2.73926 0.000244141 2.48503 0.10555 2.29758 0.292996C2.11014 0.480442 2.00483 0.734673 2.00483 0.999761C2.00483 1.26485 2.11014 1.51908 2.29758 1.70653C2.48503 1.89397 2.73926 1.99928 3.00435 1.99928H8.56166L0.295655 10.2853C0.201972 10.3782 0.127614 10.4887 0.07687 10.6105C0.0261259 10.7323 0 10.863 0 10.9949C0 11.1269 0.0261259 11.2575 0.07687 11.3793C0.127614 11.5011 0.201972 11.6117 0.295655 11.7046C0.388574 11.7983 0.499121 11.8726 0.620921 11.9234C0.742722 11.9741 0.873364 12.0002 1.00531 12.0002C1.13726 12.0002 1.2679 11.9741 1.3897 11.9234C1.5115 11.8726 1.62205 11.7983 1.71497 11.7046L10.001 3.41859V8.9959C10.001 9.26099 10.1063 9.51522 10.2937 9.70266C10.4812 9.89011 10.7354 9.99541 11.0005 9.99541C11.2656 9.99541 11.5198 9.89011 11.7072 9.70266C11.8947 9.51522 12 9.26099 12 8.9959V1.04974Z" fill="white"/>
</svg>
