<svg width="18" height="37" viewBox="0 0 18 37" fill="none" xmlns="http://www.w3.org/2000/svg">
<path fill-rule="evenodd" clip-rule="evenodd" d="M10.5062 0.0438831C10.4787 0.0442907 10.4513 0.0452564 10.4239 0.0467849C10.0161 3.90322 6.96635 6.96454 3.12711 7.40028C3.12734 7.43986 3.12874 7.47944 3.13131 7.51896C6.90727 7.99562 9.88592 11.0101 10.3174 14.7915C10.3569 14.7946 10.3964 14.7964 10.436 14.7971C10.9176 10.9634 14.0152 7.95046 17.8763 7.58882C17.8781 7.56145 17.8794 7.53406 17.8802 7.50665C13.9668 7.09443 10.8715 3.96185 10.5062 0.0438831Z" fill="black"/>
<path fill-rule="evenodd" clip-rule="evenodd" d="M4.24384 28.5232C4.1986 28.5226 4.15334 28.5234 4.10815 28.5258C3.74912 30.6169 2.10699 32.2662 0.025322 32.6403C0.0239925 32.6975 0.0250995 32.7547 0.0286441 32.8118C2.06967 33.2057 3.67073 34.8261 4.0402 36.8717C4.09725 36.8759 4.15445 36.8777 4.21164 36.877C4.61061 34.8 6.27947 33.1777 8.37468 32.8437C8.37762 32.7986 8.37903 32.7533 8.37892 32.7081C6.25237 32.3445 4.58199 30.654 4.24384 28.5232Z" fill="black"/>
</svg>
