<svg width="73" height="91" viewBox="0 0 73 91" fill="none" xmlns="http://www.w3.org/2000/svg">
<path fill-rule="evenodd" clip-rule="evenodd" d="M63.7301 83.8908C63.7297 83.9361 63.7308 83.9813 63.7335 84.0265C65.8267 84.373 67.4858 86.0053 67.8723 88.0847C67.9295 88.0856 67.9867 88.0842 68.0438 88.0803C68.4255 86.037 70.0362 84.4262 72.0796 84.0445C72.0834 83.9875 72.0849 83.9303 72.0839 83.8731C70.0045 83.4865 68.3723 81.8274 68.0258 79.7342C67.9806 79.7316 67.9353 79.7304 67.8901 79.7308C67.5392 81.8595 65.8587 83.54 63.7301 83.8908Z" fill="black"/>
<path fill-rule="evenodd" clip-rule="evenodd" d="M-7.58524e-07 72.6851C0.00103078 72.6975 0.00217461 72.7099 0.00343645 72.7222C9.45267 73.143 17.0622 80.6373 17.6651 90.0381C17.691 90.0362 17.7168 90.0338 17.7426 90.0309C18.341 80.7575 25.7575 73.3409 35.031 72.7426C35.0339 72.7168 35.0363 72.6909 35.0382 72.6651C25.6374 72.0622 18.1431 64.4526 17.7223 55.0034C17.7099 55.0021 17.6975 55.001 17.6851 54.9999C17.2606 64.5741 9.5742 72.2605 -7.58524e-07 72.6851Z" fill="#9747FF"/>
<circle cx="35.8993" cy="9.89941" r="6.5" transform="rotate(-45.3151 35.8993 9.89941)" stroke="black"/>
</svg>
