<svg width="14" height="14" viewBox="0 0 14 14" fill="none" xmlns="http://www.w3.org/2000/svg">
<path d="M0.992467 13.9982C0.760776 13.9987 0.536241 13.9175 0.357839 13.7687C0.25743 13.6849 0.174431 13.5821 0.113594 13.466C0.0527566 13.3499 0.0152775 13.2229 0.00330297 13.0922C-0.00867155 12.9615 0.00509396 12.8297 0.0438108 12.7044C0.0825275 12.5791 0.145434 12.4626 0.228929 12.3618L4.67133 7.01368L0.387587 1.65557C0.305219 1.5535 0.243707 1.43607 0.20659 1.31001C0.169472 1.18395 0.15748 1.05175 0.171302 0.921013C0.185124 0.790274 0.224488 0.663573 0.287132 0.548193C0.349775 0.432812 0.434464 0.331026 0.536328 0.248686C0.638926 0.157851 0.759075 0.0893352 0.889235 0.0474391C1.0194 0.00554297 1.15676 -0.00882886 1.2927 0.00522486C1.42864 0.0192786 1.56023 0.0614548 1.67921 0.129107C1.79818 0.196758 1.90198 0.288425 1.98407 0.398354L6.77354 6.38508C6.91938 6.56362 6.99911 6.78756 6.99911 7.01867C6.99911 7.24979 6.91938 7.47373 6.77354 7.65227L1.8155 13.639C1.71603 13.7597 1.58966 13.8552 1.44666 13.9176C1.30366 13.98 1.14806 14.0076 0.992467 13.9982Z" fill="black"/>
<path d="M7.99247 13.9982C7.76078 13.9987 7.53624 13.9175 7.35784 13.7687C7.25743 13.6849 7.17443 13.5821 7.11359 13.466C7.05276 13.3499 7.01528 13.2229 7.0033 13.0922C6.99133 12.9615 7.00509 12.8297 7.04381 12.7044C7.08253 12.5791 7.14543 12.4626 7.22893 12.3618L11.6713 7.01368L7.38759 1.65557C7.30522 1.5535 7.24371 1.43607 7.20659 1.31001C7.16947 1.18395 7.15748 1.05175 7.1713 0.921013C7.18512 0.790274 7.22449 0.663573 7.28713 0.548193C7.34978 0.432812 7.43446 0.331026 7.53633 0.248686C7.63893 0.157851 7.75907 0.0893352 7.88924 0.0474391C8.0194 0.00554297 8.15676 -0.00882886 8.2927 0.00522486C8.42864 0.0192786 8.56023 0.0614548 8.67921 0.129107C8.79818 0.196758 8.90198 0.288425 8.98407 0.398354L13.7735 6.38508C13.9194 6.56362 13.9991 6.78756 13.9991 7.01867C13.9991 7.24979 13.9194 7.47373 13.7735 7.65227L8.8155 13.639C8.71603 13.7597 8.58966 13.8552 8.44666 13.9176C8.30366 13.98 8.14806 14.0076 7.99247 13.9982Z" fill="black"/>
</svg>
