<svg width="14" height="14" viewBox="0 0 14 14" fill="none" xmlns="http://www.w3.org/2000/svg">
<path d="M13.0066 13.9982C13.2383 13.9987 13.4629 13.9175 13.6413 13.7687C13.7417 13.6849 13.8247 13.5821 13.8855 13.466C13.9464 13.3499 13.9838 13.2229 13.9958 13.0922C14.0078 12.9615 13.994 12.8297 13.9553 12.7044C13.9166 12.5791 13.8537 12.4626 13.7702 12.3618L9.32779 7.01368L13.6115 1.65557C13.6939 1.5535 13.7554 1.43607 13.7925 1.31001C13.8296 1.18395 13.8416 1.05175 13.8278 0.921013C13.814 0.790274 13.7746 0.663573 13.712 0.548193C13.6493 0.432812 13.5647 0.331026 13.4628 0.248686C13.3602 0.157851 13.24 0.0893352 13.1099 0.0474391C12.9797 0.00554297 12.8424 -0.00882886 12.7064 0.00522486C12.5705 0.0192786 12.4389 0.0614548 12.3199 0.129107C12.2009 0.196758 12.0971 0.288425 12.015 0.398354L7.22558 6.38508C7.07973 6.56362 7 6.78756 7 7.01867C7 7.24979 7.07973 7.47373 7.22558 7.65227L12.1836 13.639C12.2831 13.7597 12.4095 13.8552 12.5525 13.9176C12.6955 13.98 12.8511 14.0076 13.0066 13.9982Z" fill="black"/>
<path d="M6.00665 13.9982C6.23834 13.9987 6.46287 13.9175 6.64128 13.7687C6.74169 13.6849 6.82468 13.5821 6.88552 13.466C6.94636 13.3499 6.98384 13.2229 6.99581 13.0922C7.00779 12.9615 6.99402 12.8297 6.9553 12.7044C6.91659 12.5791 6.85368 12.4626 6.77019 12.3618L2.32779 7.01368L6.61153 1.65557C6.6939 1.5535 6.75541 1.43607 6.79253 1.31001C6.82964 1.18395 6.84163 1.05175 6.82781 0.921013C6.81399 0.790274 6.77463 0.663573 6.71198 0.548193C6.64934 0.432812 6.56465 0.331026 6.46279 0.248686C6.36019 0.157851 6.24004 0.0893352 6.10988 0.0474391C5.97972 0.00554297 5.84236 -0.00882886 5.70641 0.00522486C5.57047 0.0192786 5.43888 0.0614548 5.31991 0.129107C5.20093 0.196758 5.09714 0.288425 5.01504 0.398354L0.225578 6.38508C0.079731 6.56362 0 6.78756 0 7.01867C0 7.24979 0.079731 7.47373 0.225578 7.65227L5.18361 13.639C5.28309 13.7597 5.40945 13.8552 5.55245 13.9176C5.69545 13.98 5.85106 14.0076 6.00665 13.9982Z" fill="black"/>
</svg>
