<svg width="10" height="14" viewBox="0 0 10 14" fill="none" xmlns="http://www.w3.org/2000/svg">
<path d="M6.86474 13.9982C7.12953 13.9987 7.38614 13.9175 7.59003 13.7687C7.70478 13.6849 7.79964 13.5821 7.86917 13.466C7.9387 13.3499 7.98153 13.2229 7.99521 13.0922C8.0089 12.9615 7.99317 12.8297 7.94892 12.7044C7.90467 12.5791 7.83278 12.4626 7.73735 12.3618L2.66033 7.01368L7.55603 1.65557C7.65017 1.5535 7.72047 1.43607 7.76289 1.31001C7.80531 1.18395 7.81901 1.05175 7.80321 0.921013C7.78742 0.790274 7.74243 0.663573 7.67084 0.548193C7.59925 0.432812 7.50246 0.331026 7.38604 0.248686C7.26879 0.157851 7.13147 0.0893352 6.98272 0.0474391C6.83396 0.00554297 6.67698 -0.00882886 6.52162 0.00522486C6.36625 0.0192786 6.21587 0.0614548 6.0799 0.129107C5.94392 0.196758 5.8253 0.288425 5.73147 0.398354L0.257804 6.38508C0.0911211 6.56362 7.56107e-08 6.78756 7.56107e-08 7.01867C7.56107e-08 7.24979 0.0911211 7.47373 0.257804 7.65227L5.92413 13.639C6.03782 13.7597 6.18223 13.8552 6.34566 13.9176C6.50909 13.98 6.68692 14.0076 6.86474 13.9982Z" fill="black"/>
</svg>
