<svg width="10" height="14" viewBox="0 0 10 14" fill="none" xmlns="http://www.w3.org/2000/svg">
<path d="M3.13526 13.9982C2.87047 13.9987 2.61386 13.9175 2.40997 13.7687C2.29522 13.6849 2.20036 13.5821 2.13083 13.466C2.0613 13.3499 2.01847 13.2229 2.00479 13.0922C1.9911 12.9615 2.00683 12.8297 2.05108 12.7044C2.09533 12.5791 2.16722 12.4626 2.26265 12.3618L7.33967 7.01368L2.44397 1.65557C2.34983 1.5535 2.27953 1.43607 2.23711 1.31001C2.19469 1.18395 2.18099 1.05175 2.19679 0.921013C2.21258 0.790274 2.25757 0.663573 2.32916 0.548193C2.40075 0.432812 2.49754 0.331026 2.61396 0.248686C2.73121 0.157851 2.86853 0.0893352 3.01728 0.0474391C3.16604 0.00554297 3.32302 -0.00882886 3.47838 0.00522486C3.63375 0.0192786 3.78413 0.0614548 3.9201 0.129107C4.05608 0.196758 4.1747 0.288425 4.26853 0.398354L9.7422 6.38508C9.90888 6.56362 10 6.78756 10 7.01867C10 7.24979 9.90888 7.47373 9.7422 7.65227L4.07587 13.639C3.96218 13.7597 3.81777 13.8552 3.65434 13.9176C3.49091 13.98 3.31308 14.0076 3.13526 13.9982Z" fill="black"/>
</svg>
